<svg viewBox="0 0 24 24" xmlns="http://www.w3.org/2000/svg"><g data-name="20. Add"><path d="M17 8a8.94 8.94 0 0 1 5 1.52V4a4 4 0 0 0-4-4H4a4 4 0 0 0-4 4v14a4 4 0 0 0 4 4h5.52A9 9 0 0 1 17 8Z" fill="#ffffff" class="fill-000000" data-darkreader-inline-fill="" style="--darkreader-inline-fill: var(--darkreader-background-ffffff, #181a1b);"></path><path d="M17 10a7 7 0 1 0 7 7 7.008 7.008 0 0 0-7-7Zm2 8h-1v1a1 1 0 0 1-2 0v-1h-1a1 1 0 0 1 0-2h1v-1a1 1 0 0 1 2 0v1h1a1 1 0 0 1 0 2Z" fill="#ffffff" class="fill-000000" data-darkreader-inline-fill="" style="--darkreader-inline-fill: var(--darkreader-background-ffffff, #181a1b);"></path></g></svg>