<svg viewBox="0 0 640 512" xmlns="http://www.w3.org/2000/svg"><path d="M228.3 216.1 320 64 69.77 32.13c-6.87-.87-13.53 2.64-16.53 8.89L1.755 143.8c-4.625 9.3.284 20.3 10.035 23l197.1 56.53c7.91 2.07 15.51-.93 19.41-7.23zm410-72.3L586.81 41c-3-6.25-9.757-9.758-16.63-8.883L320 64l91.74 152.1c3.752 6.25 11.38 9.261 18.51 7.261l197.9-56.51C638 164 642.8 153 638.3 143.8zM425.8 257.3c-17 0-32.88-8.949-41.5-23.24L320 128l-64.2 106c-8.7 14.4-24.5 23.4-41.5 23.4-4.5 0-9-.621-13.25-1.863L64 216.5v176.1c0 14.67 9.999 27.35 24.25 30.83l216.1 53.82c10.25 2.486 20.88 2.486 31 0l216.4-53.82C565.1 420.7 576 408 576 393.5v-177l-137 38.9c-4.2 1.2-8.7 1.9-13.2 1.9z" fill="#ffffff" class="fill-000000" data-darkreader-inline-fill="" style="--darkreader-inline-fill: var(--darkreader-background-ffffff, #181a1b);"></path></svg>